<?xml version="1.0" encoding="UTF-8" standalone="no"?>
<svg
   xmlns:dc="http://purl.org/dc/elements/1.1/"
   xmlns:cc="http://creativecommons.org/ns#"
   xmlns:rdf="http://www.w3.org/1999/02/22-rdf-syntax-ns#"
   xmlns:svg="http://www.w3.org/2000/svg"
   xmlns="http://www.w3.org/2000/svg"
   xmlns:sodipodi="http://sodipodi.sourceforge.net/DTD/sodipodi-0.dtd"
   xmlns:inkscape="http://www.inkscape.org/namespaces/inkscape"
   id="Layer_1"
   enable-background="new 0 0 512 512"
   height="512"
   viewBox="0 0 512 512"
   width="512"
   version="1.1"
   sodipodi:docname="few-clouds.svg"
   inkscape:version="1.0.2 (e86c870879, 2021-01-15, custom)">
  <metadata
     id="metadata31">
    <rdf:RDF>
      <cc:Work
         rdf:about="">
        <dc:format>image/svg+xml</dc:format>
        <dc:type
           rdf:resource="http://purl.org/dc/dcmitype/StillImage" />
      </cc:Work>
    </rdf:RDF>
  </metadata>
  <defs
     id="defs29" />
  <sodipodi:namedview
     pagecolor="#ffffff"
     bordercolor="#666666"
     borderopacity="1"
     objecttolerance="10"
     gridtolerance="10"
     guidetolerance="10"
     inkscape:pageopacity="0"
     inkscape:pageshadow="2"
     inkscape:window-width="1316"
     inkscape:window-height="768"
     id="namedview27"
     showgrid="false"
     inkscape:zoom="1.1210938"
     inkscape:cx="256"
     inkscape:cy="256"
     inkscape:window-x="50"
     inkscape:window-y="0"
     inkscape:window-maximized="0"
     inkscape:current-layer="Layer_1"
     inkscape:document-rotation="0" />
  <path
     d="m222.66 220.6c-35.35 4.58-62.66 34.81-62.66 71.4-20.92 0-39.15 11.46-48.76 28.46-36.313-10.61-63.24-44.243-63.24-84.46 0-48.586 39.399-88 88-88 43.692 0 79.442 31.706 86.66 72.6z"
     fill="#ffdf81"
     id="path2"
     style="fill:#ececec" />
  <path
     d="m205.71 182.3c-35.032-27.064-84.728-23.74-115.93 7.48-31.241 31.222-34.517 80.933-7.48 115.93-21.095-16.244-34.3-41.635-34.3-69.71 0-48.586 39.399-88 88-88 28.054 0 53.457 13.194 69.71 34.3z"
     fill="#f9ecb4"
     id="path4"
     style="fill:#cccccc" />
  <path
     d="m222.66 220.6c-35.35 4.58-62.66 34.81-62.66 71.4-20.92 0-39.15 11.46-48.76 28.46-18.921-5.528-35.498-17.355-46.99-33.51 9.31 7.96 20.29 13.99 32.33 17.51 9.61-17 27.84-28.46 48.76-28.46 0-36.59 27.31-66.82 62.66-71.4-2.31-13.08-7.51-25.16-14.91-35.56 15.486 13.209 26.014 31.411 29.57 51.56z"
     fill="#ffcd76"
     id="path6"
     style="fill:#ececec" />
  <path
     d="m432 404h-272c-30.93 0-56-25.07-56-56s25.07-56 56-56c0-47.91 45.994-82.413 91.92-69.21 52.411-71.932 165.158-48.807 185.34 37.4 37.31 2.69 66.74 33.82 66.74 71.81 0 39.76-32.24 72-72 72z"
     fill="#add9ff"
     id="path8"
     style="fill:#999999" />
  <g
     fill="#d6ecff"
     id="g16">
    <path
       d="m417.1 218.89c-46.079-37.029-114.104-28.239-149.18 19.9-46.024-13.231-91.92 21.386-91.92 69.21-45.061 0-70.917 50.224-46.78 86.78-15.2-10.01-25.22-27.22-25.22-46.78 0-30.93 25.07-56 56-56 0-47.91 45.994-82.413 91.92-69.21 40.366-55.401 122.233-57.325 165.18-3.9z"
       id="path10"
       style="fill:#808080" />
    <circle
       cx="144"
       cy="372"
       r="8"
       id="circle12"
       style="fill:#666666" />
    <circle
       cx="132"
       cy="360"
       id="circle14"
       style="fill:#808080"
       r="4" />
  </g>
  <circle
     cx="88"
     cy="276"
     fill="#ffcd76"
     r="8"
     id="circle18"
     style="fill:#cccccc" />
  <circle
     cx="76"
     cy="264"
     fill="#ffcd76"
     r="4"
     id="circle20"
     style="fill:#cccccc" />
  <path
     d="M 443.602,252.838 C 418.406,165.912 305.545,143.356 248.766,213.76 c -6.722,-1.433 -13.209,-1.932 -19.768,-1.689 -3.59,-14.029 -10.297,-26.969 -19.701,-38.055 l 28.361,-28.36 c 3.125,-3.124 3.125,-8.189 0,-11.313 -3.124,-3.124 -8.189,-3.124 -11.313,0 L 197.986,162.7 C 182.705,149.729 163.98,141.971 144,140.333 V 108 c 0,-4.419 -3.581,-8 -8,-8 -4.419,0 -8,3.581 -8,8 v 32.333 C 108.019,141.971 89.293,149.73 74.014,162.7 L 45.657,134.343 c -3.124,-3.124 -8.189,-3.124 -11.313,0 -3.125,3.124 -3.125,8.189 0,11.313 L 62.7,174.014 C 49.729,189.294 41.971,208.02 40.333,228 H 8 c -4.418,0 -8,3.581 -8,8 0,4.419 3.582,8 8,8 h 32.333 c 1.638,19.982 9.396,38.708 22.367,53.986 l -28.357,28.357 c -3.125,3.124 -3.125,8.189 0,11.313 3.124,3.124 8.189,3.124 11.313,0 l 28.365,-28.365 c 7.846,6.638 16.716,11.991 26.219,15.811 C 84.206,366.81 115.128,412 160,412 h 88 c 4.419,0 8,-3.582 8,-8 0,-4.418 -3.581,-8 -8,-8 h -88 c -26.467,0 -48,-21.533 -48,-48 0,-26.467 21.533,-48 48,-48 4.419,0 8,-3.582 8,-8 0,-35.29 28.71,-64 64,-64 35.786,0 64,29.266 64,64 0,4.418 3.582,8 8,8 4.418,0 8,-3.582 8,-8 0,-31.505 -18.765,-59.95 -46.817,-72.79 52.83,-57.606 147.007,-31.003 164.288,42.804 0.798,3.41 3.721,5.904 7.214,6.156 33.26,2.397 59.315,30.435 59.315,63.83 0,35.29 -28.71,64 -64,64 H 296 c -4.418,0 -8,3.582 -8,8 0,4.418 3.582,8 8,8 h 136 c 5.70953,0 11.28129,-0.60122 16.65528,-1.74369 C 484.80093,402.57207 512,370.40247 512,332 c 0,-39.794 -29.603,-73.503 -68.398,-79.162 z m -291.249,31.616 c -18.303,2.189 -34.246,12.143 -44.461,26.453 C 53.949,290.644 37.99,220.86 79.439,179.435 c 43.546,-43.571 117.258,-23.281 133.571,34.845 -32.607,7.968 -57.443,35.974 -60.657,70.174 z"
     id="path22"
     sodipodi:nodetypes="cccccccccsssccsccccsssccccsccsssssssssssscccsssssssscccccc"
     style="fill:#ffffff" />
  <circle
     cx="272"
     cy="404"
     r="8"
     id="circle24"
     style="fill:#ffffff" />
</svg>
