<?xml version="1.0" encoding="UTF-8" standalone="no"?>
<svg
   xmlns:dc="http://purl.org/dc/elements/1.1/"
   xmlns:cc="http://creativecommons.org/ns#"
   xmlns:rdf="http://www.w3.org/1999/02/22-rdf-syntax-ns#"
   xmlns:svg="http://www.w3.org/2000/svg"
   xmlns="http://www.w3.org/2000/svg"
   xmlns:sodipodi="http://sodipodi.sourceforge.net/DTD/sodipodi-0.dtd"
   xmlns:inkscape="http://www.inkscape.org/namespaces/inkscape"
   id="Layer_1"
   enable-background="new 0 0 512.132 512.132"
   height="512"
   viewBox="0 0 512.132 512.132"
   width="512"
   version="1.1"
   sodipodi:docname="rain.svg"
   inkscape:version="1.0.2 (e86c870879, 2021-01-15, custom)">
  <metadata
     id="metadata27">
    <rdf:RDF>
      <cc:Work
         rdf:about="">
        <dc:format>image/svg+xml</dc:format>
        <dc:type
           rdf:resource="http://purl.org/dc/dcmitype/StillImage" />
      </cc:Work>
    </rdf:RDF>
  </metadata>
  <defs
     id="defs25" />
  <sodipodi:namedview
     pagecolor="#ffffff"
     bordercolor="#666666"
     borderopacity="1"
     objecttolerance="10"
     gridtolerance="10"
     guidetolerance="10"
     inkscape:pageopacity="0"
     inkscape:pageshadow="2"
     inkscape:window-width="1316"
     inkscape:window-height="768"
     id="namedview23"
     showgrid="false"
     inkscape:zoom="1.1210938"
     inkscape:cx="256"
     inkscape:cy="256"
     inkscape:window-x="50"
     inkscape:window-y="0"
     inkscape:window-maximized="0"
     inkscape:current-layer="Layer_1" />
  <path
     d="m376.316 405.45c-5.93-1.391-11.67-3.3-17.17-5.66 27.36-24.98 42.82-59.16 32.92-95.62-6.21-22.88-24.96-58.47-46.62-94.96l10.67-20.53c22.92 39.41 54.75 96.32 59.95 115.49 8.751 32.226-.64 68.869-39.75 101.28z"
     fill="#5989b3"
     id="path2" />
  <path
     d="m504.066 304.17c0 75.116-77.051 124.797-144.92 95.62 27.36-24.98 42.82-59.16 32.92-95.62-6.21-22.88-24.96-58.47-46.62-94.96l54.62-105.04z"
     fill="#99d0ff"
     id="path4"
     style="fill:#999999" />
  <path
     d="m376.316 405.45c-5.93-1.391-11.67-3.3-17.17-5.66 27.36-24.98 42.82-59.16 32.92-95.62-6.21-22.88-24.96-58.47-46.62-94.96l10.67-20.53c22.92 39.41 54.75 96.32 59.95 115.49 8.751 32.226-.64 68.869-39.75 101.28z"
     fill="#5989b3"
     id="path6"
     style="fill:#808080" />
  <path
     d="m152.986 399.79c-67.914 29.196-144.92-20.56-144.92-95.62l104-200 54.62 105.04c-21.66 36.49-40.41 72.08-46.62 94.96-9.9 36.46 5.56 70.64 32.92 95.62z"
     fill="#add9ff"
     id="path8"
     style="fill:#e6e6e6" />
  <path
     d="m137.196 405.45c5.93-1.391 11.67-3.3 17.17-5.66-27.36-24.98-42.82-59.16-32.92-95.62 6.21-22.88 24.96-58.47 46.62-94.96l-10.67-20.53c-22.92 39.41-54.75 96.32-59.95 115.49-8.751 32.226.64 68.869 39.75 101.28z"
     fill="#99d0ff"
     id="path10"
     style="fill:#f2f2f2" />
  <path
     d="m392.066 304.17c-17.615-64.882-136-232-136-232s-118.385 167.118-136 232c-19.68 72.487 60.889 136 136 136 75.11 0 155.68-63.513 136-136z"
     fill="#c2e3ff"
     id="path12"
     style="fill:#cccccc" />
  <path
     d="m266.566 439.76c-78.855 6.08-166.972-60.185-146.5-135.59 17.62-64.88 136-232 136-232s3.94 5.57 10.5 15.06c-29.36 42.53-111.11 163.9-125.51 216.94-18.77 69.12 53.62 130.08 125.51 135.59z"
     fill="#d6ecff"
     id="path14"
     style="fill:#ececec" />
  <path
     d="m407.164 100.48c-2.977-5.726-11.206-5.75-14.195 0l-48.003 92.315c-37.236-61.366-79.457-121.136-82.371-125.248-3.177-4.486-9.861-4.514-13.056 0-2.914 4.112-45.135 63.882-82.372 125.248l-48.003-92.315c-2.977-5.726-11.206-5.75-14.195 0-111.226 213.912-104.903 200.775-104.903 203.69 0 77.983 78.302 132.392 151.33 104.879 62.282 53.104 149.942 50.643 209.34 0 72.953 27.486 151.33-26.829 151.33-104.879 0-2.888 6.316 10.208-104.902-203.69zm-391.079 205.609 95.981-184.578 45.456 87.416c-20.991 35.682-38.973 70.297-45.177 93.148-9.247 34.06 1.774 67.737 26.077 94.433-60.262 17.239-121.099-27.436-122.337-90.419zm239.981 126.081c-69.792 0-146.486-58.847-128.279-125.904 14.689-54.103 103.322-184.169 128.279-220.131 24.957 35.959 113.588 166.018 128.279 220.131 18.208 67.066-58.494 125.904-128.279 125.904zm117.644-35.663c24.391-26.788 35.294-60.483 26.077-94.433-6.204-22.851-24.185-57.466-45.177-93.146l45.456-87.417 95.981 184.578c-1.236 62.889-62.002 107.678-122.337 90.418z"
     id="path16"
     style="fill:#ffffff" />
  <path
     d="m286.976 164.139c-2.227-3.814-7.123-5.105-10.941-2.879-3.816 2.227-5.105 7.125-2.879 10.941l56 96c1.487 2.549 4.165 3.971 6.918 3.971 6.102 0 10.032-6.669 6.902-12.033z"
     id="path18"
     style="fill:#ffffff" />
  <path
     d="m357.726 290.51c-3.114-3.114-8.203-3.117-11.32 0-3.116 3.117-3.114 8.206 0 11.32 3.112 3.11 8.197 3.121 11.32 0 3.165-3.188 3.068-8.25 0-11.32z"
     id="path20"
     style="fill:#ffffff" />
</svg>
