<?xml version="1.0" encoding="UTF-8" standalone="no"?>
<svg
   xmlns:dc="http://purl.org/dc/elements/1.1/"
   xmlns:cc="http://creativecommons.org/ns#"
   xmlns:rdf="http://www.w3.org/1999/02/22-rdf-syntax-ns#"
   xmlns:svg="http://www.w3.org/2000/svg"
   xmlns="http://www.w3.org/2000/svg"
   xmlns:sodipodi="http://sodipodi.sourceforge.net/DTD/sodipodi-0.dtd"
   xmlns:inkscape="http://www.inkscape.org/namespaces/inkscape"
   id="Layer_1"
   enable-background="new 0 0 512 512"
   height="512"
   viewBox="0 0 512 512"
   width="512"
   version="1.1"
   sodipodi:docname="shower-rain.svg"
   inkscape:version="1.0.2 (e86c870879, 2021-01-15, custom)">
  <metadata
     id="metadata37">
    <rdf:RDF>
      <cc:Work
         rdf:about="">
        <dc:format>image/svg+xml</dc:format>
        <dc:type
           rdf:resource="http://purl.org/dc/dcmitype/StillImage" />
      </cc:Work>
    </rdf:RDF>
  </metadata>
  <defs
     id="defs35" />
  <sodipodi:namedview
     pagecolor="#ffffff"
     bordercolor="#666666"
     borderopacity="1"
     objecttolerance="10"
     gridtolerance="10"
     guidetolerance="10"
     inkscape:pageopacity="0"
     inkscape:pageshadow="2"
     inkscape:window-width="1316"
     inkscape:window-height="768"
     id="namedview33"
     showgrid="false"
     inkscape:zoom="1.1210938"
     inkscape:cx="256"
     inkscape:cy="256"
     inkscape:window-x="50"
     inkscape:window-y="0"
     inkscape:window-maximized="0"
     inkscape:current-layer="Layer_1" />
  <path
     d="m424 352c0-30.928-25.072-56-56-56s-56 25.072-56 56c0-30.928-25.072-56-56-56s-56 25.072-56 56c0-30.928-25.072-56-56-56s-56 25.072-56 56v-16c0-101.62 66.38-184 168-184s168 82.38 168 184z"
     fill="#add9ff"
     id="path2"
     style="fill:#ececec" />
  <path
     d="m424 336v16c0-30.93-25.07-56-56-56s-56 25.07-56 56c0-30.93-25.07-56-56-56s-56 25.07-56 56v-144c0-30.93 25.07-56 56-56 101.62 0 168 82.38 168 184z"
     fill="#5989b3"
     id="path4"
     style="fill:#808080" />
  <path
     d="m122.86 300.13c-20.45 8.34-34.86 28.42-34.86 51.87v-16c0-109.054 75.918-192.805 184-183.3-80.72 7.13-136.28 68.12-149.14 147.43z"
     fill="#d6ecff"
     id="path6"
     style="fill:#f2f2f2" />
  <path
     d="m312 208v144c0-30.93-25.07-56-56-56s-56 25.07-56 56v-144c0-30.93 25.07-56 56-56s56 25.07 56 56z"
     fill="#99d0ff"
     id="path8"
     style="fill:#cccccc" />
  <path
     d="m384.113 200.608c-66.53-75.616-189.628-75.694-256.227 0-30.879 35.096-47.886 83.179-47.886 135.392v16c0 4.418 3.582 8 8 8s8-3.582 8-8c0-26.467 21.532-48 48-48s48 21.533 48 48c0 4.418 3.582 8 8 8s8-3.582 8-8c0-23.741 17.328-43.5 40-47.32v55.32c0 4.418 3.582 8 8 8s8-3.582 8-8v-55.32c22.672 3.821 40 23.579 40 47.32 0 4.418 3.582 8 8 8s8-3.582 8-8c0-26.467 21.532-48 48-48s48 21.533 48 48c0 4.418 3.582 8 8 8s8-3.582 8-8v-16c0-52.213-17.007-100.296-47.887-135.392zm-286.288 107.12c8.546-65.202 47.475-120.975 108.765-140.359-9.111 11.059-14.59 25.217-14.59 40.631v101.724c-24.83-28.159-68.208-29.069-94.175-1.996zm110.175 1.996v-101.724c0-26.467 21.533-48 48-48s48 21.533 48 48v101.724c-25.565-28.992-70.481-28.939-96 0zm112 0v-101.724c0-15.414-5.478-29.572-14.59-40.632 61.337 19.399 100.221 75.171 108.765 140.359-25.986-27.092-69.364-26.14-94.175 1.997z"
     id="path10"
     style="fill:#ffffff" />
  <path
     d="m256 416c-4.418 0-8 3.582-8 8v48c0 13.234-10.767 24-24 24s-24-10.766-24-24c0-4.418-3.582-8-8-8s-8 3.582-8 8c0 22.056 17.944 40 40 40s40-17.944 40-40v-48c0-4.418-3.582-8-8-8z"
     id="path12"
     style="fill:#ffffff" />
  <path
     d="m112 176c4.418 0 8-3.581 8-8v-160c0-4.418-3.582-8-8-8s-8 3.582-8 8v160c0 4.419 3.582 8 8 8z"
     id="path14"
     style="fill:#ffffff" />
  <path
     d="m400 176c4.418 0 8-3.581 8-8v-160c0-4.418-3.582-8-8-8s-8 3.582-8 8v160c0 4.419 3.582 8 8 8z"
     id="path16"
     style="fill:#ffffff" />
  <path
     d="m160 144c4.418 0 8-3.581 8-8v-96c0-4.418-3.582-8-8-8s-8 3.582-8 8v96c0 4.419 3.582 8 8 8z"
     id="path18"
     style="fill:#ffffff" />
  <path
     d="m352 144c4.418 0 8-3.581 8-8v-96c0-4.418-3.582-8-8-8s-8 3.582-8 8v96c0 4.419 3.582 8 8 8z"
     id="path20"
     style="fill:#ffffff" />
  <path
     d="m208 112c4.418 0 8-3.581 8-8v-96c0-4.418-3.582-8-8-8s-8 3.582-8 8v96c0 4.419 3.582 8 8 8z"
     id="path22"
     style="fill:#ffffff" />
  <path
     d="m256 96c4.418 0 8-3.581 8-8v-80c0-4.418-3.582-8-8-8s-8 3.582-8 8v80c0 4.419 3.582 8 8 8z"
     id="path24"
     style="fill:#ffffff" />
  <path
     d="m304 112c4.418 0 8-3.581 8-8v-96c0-4.418-3.582-8-8-8s-8 3.582-8 8v96c0 4.419 3.582 8 8 8z"
     id="path26"
     style="fill:#ffffff" />
  <circle
     cx="256"
     cy="120"
     r="8"
     id="circle28"
     style="fill:#ffffff" />
  <circle
     cx="256"
     cy="392"
     r="8"
     id="circle30"
     style="fill:#ffffff" />
</svg>
