<?xml version="1.0" encoding="UTF-8" standalone="no"?>
<svg
   xmlns:dc="http://purl.org/dc/elements/1.1/"
   xmlns:cc="http://creativecommons.org/ns#"
   xmlns:rdf="http://www.w3.org/1999/02/22-rdf-syntax-ns#"
   xmlns:svg="http://www.w3.org/2000/svg"
   xmlns="http://www.w3.org/2000/svg"
   xmlns:sodipodi="http://sodipodi.sourceforge.net/DTD/sodipodi-0.dtd"
   xmlns:inkscape="http://www.inkscape.org/namespaces/inkscape"
   width="24"
   height="24"
   preserveAspectRatio="xMidYMid meet"
   viewBox="0 0 24 24"
   style="-ms-transform: rotate(360deg); -webkit-transform: rotate(360deg); transform: rotate(360deg);"
   version="1.1"
   id="svg6"
   sodipodi:docname="weather-partly-cloudy.svg"
   inkscape:version="1.0.1 (3bc2e813f5, 2020-09-07)">
  <metadata
     id="metadata12">
    <rdf:RDF>
      <cc:Work
         rdf:about="">
        <dc:format>image/svg+xml</dc:format>
        <dc:type
           rdf:resource="http://purl.org/dc/dcmitype/StillImage" />
      </cc:Work>
    </rdf:RDF>
  </metadata>
  <defs
     id="defs10" />
  <sodipodi:namedview
     pagecolor="#ffffff"
     bordercolor="#666666"
     borderopacity="1"
     objecttolerance="10"
     gridtolerance="10"
     guidetolerance="10"
     inkscape:pageopacity="0"
     inkscape:pageshadow="2"
     inkscape:window-width="1366"
     inkscape:window-height="768"
     id="namedview8"
     showgrid="false"
     inkscape:zoom="24.083333"
     inkscape:cx="12"
     inkscape:cy="12"
     inkscape:window-x="0"
     inkscape:window-y="0"
     inkscape:window-maximized="0"
     inkscape:current-layer="svg6" />
  <path
     d="M12.74 5.47c2.36 1.03 3.61 3.56 3.18 5.99A6.002 6.002 0 0 1 18 16v.17a3 3 0 0 1 1-.17a3 3 0 0 1 3 3a3 3 0 0 1-3 3H6a4 4 0 0 1-4-4a4 4 0 0 1 4-4h.27C5 12.45 4.6 10.24 5.5 8.26a5.49 5.49 0 0 1 7.24-2.79m-.81 1.83c-1.77-.8-3.84.01-4.62 1.77c-.46 1.02-.38 2.15.1 3.06A5.988 5.988 0 0 1 12 10c.7 0 1.38.12 2 .34a3.506 3.506 0 0 0-2.07-3.04m1.62-3.66c-.55-.24-1.1-.41-1.67-.52l2.49-1.3l.9 2.89a7.67 7.67 0 0 0-1.72-1.07m-7.46.8c-.49.35-.92.75-1.29 1.19l.11-2.81l2.96.68c-.62.21-1.22.53-1.78.94M18 9.71c-.09-.59-.22-1.16-.41-1.71l2.38 1.5l-2.05 2.23c.11-.65.13-1.33.08-2.02M3.04 11.3c.07.6.2 1.17.39 1.7l-2.37-1.5L3.1 9.28c-.1.65-.13 1.33-.06 2.02M19 18h-3v-2a4 4 0 0 0-4-4a4 4 0 0 0-4 4H6a2 2 0 0 0-2 2a2 2 0 0 0 2 2h13a1 1 0 0 0 1-1a1 1 0 0 0-1-1z"
     fill="#626262"
     id="path2"
     style="fill:#ffffff" />
</svg>
