<?xml version="1.0" encoding="UTF-8" standalone="no"?>
<svg
   xmlns:dc="http://purl.org/dc/elements/1.1/"
   xmlns:cc="http://creativecommons.org/ns#"
   xmlns:rdf="http://www.w3.org/1999/02/22-rdf-syntax-ns#"
   xmlns:svg="http://www.w3.org/2000/svg"
   xmlns="http://www.w3.org/2000/svg"
   xmlns:sodipodi="http://sodipodi.sourceforge.net/DTD/sodipodi-0.dtd"
   xmlns:inkscape="http://www.inkscape.org/namespaces/inkscape"
   width="24"
   height="24"
   preserveAspectRatio="xMidYMid meet"
   viewBox="0 0 24 24"
   style="-ms-transform: rotate(360deg); -webkit-transform: rotate(360deg); transform: rotate(360deg);"
   version="1.1"
   id="svg6"
   sodipodi:docname="weather-lightning-rainy.svg"
   inkscape:version="1.0.1 (3bc2e813f5, 2020-09-07)">
  <metadata
     id="metadata12">
    <rdf:RDF>
      <cc:Work
         rdf:about="">
        <dc:format>image/svg+xml</dc:format>
        <dc:type
           rdf:resource="http://purl.org/dc/dcmitype/StillImage" />
      </cc:Work>
    </rdf:RDF>
  </metadata>
  <defs
     id="defs10" />
  <sodipodi:namedview
     pagecolor="#ffffff"
     bordercolor="#666666"
     borderopacity="1"
     objecttolerance="10"
     gridtolerance="10"
     guidetolerance="10"
     inkscape:pageopacity="0"
     inkscape:pageshadow="2"
     inkscape:window-width="1366"
     inkscape:window-height="768"
     id="namedview8"
     showgrid="false"
     inkscape:zoom="24.083333"
     inkscape:cx="12"
     inkscape:cy="12"
     inkscape:window-x="0"
     inkscape:window-y="0"
     inkscape:window-maximized="0"
     inkscape:current-layer="svg6" />
  <path
     d="M4.5 13.59c.5.28.64.91.37 1.37c-.28.48-.87.64-1.37.37A4.98 4.98 0 0 1 1 11a5 5 0 0 1 5-5c1-2.35 3.3-4 6-4c3.43 0 6.24 2.66 6.5 6.03L19 8a4 4 0 0 1 4 4a4 4 0 0 1-4 4a1 1 0 0 1-1-1a1 1 0 0 1 1-1a2 2 0 0 0 2-2a2 2 0 0 0-2-2h-2V9a5 5 0 0 0-5-5C9.5 4 7.45 5.82 7.06 8.19C6.73 8.07 6.37 8 6 8a3 3 0 0 0-3 3c0 1.11.6 2.08 1.5 2.6v-.01m5-2.59h3l-2 4h2l-3.75 7l.75-5H7l2.5-6m8 7.67c0 1.29-1 2.33-2.25 2.33S13 19.96 13 18.67c0-1.55 2.25-4.17 2.25-4.17s2.25 2.62 2.25 4.17z"
     fill="#626262"
     id="path2"
     style="fill:#ffffff" />
</svg>
